<svg width="131" height="40" viewBox="0 0 131 40" fill="none" xmlns="http://www.w3.org/2000/svg">
<g clip-path="url(#clip0_1_2)">
<path d="M15.5 39C22.9558 39 29 32.9558 29 25.5C29 18.0442 22.9558 12 15.5 12C8.04416 12 2 18.0442 2 25.5C2 32.9558 8.04416 39 15.5 39Z" fill="url(#paint0_linear_1_2)"/>
<path d="M8.4286 21.1351C12.6075 20.0893 16.7766 19.046 20.9559 18C21.1752 18.848 21.3923 19.6879 21.6118 20.5371C18.3486 21.3537 15.0907 22.1692 11.8329 22.9846C11.8336 22.9898 11.8342 22.9949 11.835 23.0001H21.9228C21.9245 23.037 21.9274 23.0668 21.9274 23.0969C21.9276 25.2878 21.9287 27.4789 21.927 29.6698C21.926 30.8933 20.9172 31.9325 19.6794 31.9896C19.5589 31.9952 19.4381 31.9986 19.3174 31.9986C16.6832 31.9992 14.049 31.9995 11.415 31.9986C10.7566 31.9984 10.1814 31.7789 9.7114 31.3255C9.2836 30.9126 9.0414 30.4063 9.0043 29.8126C8.9969 29.6941 8.9946 29.5752 8.9946 29.4565C8.994 27.5189 8.9931 25.5814 8.9959 23.644C8.9963 23.4423 8.9738 23.2479 8.9213 23.0522C8.7567 22.4395 8.6021 21.8244 8.4438 21.21C8.4385 21.1894 8.4353 21.1682 8.4286 21.1351ZM9.6049 25.6276V25.7292C9.6049 27.0375 9.6047 28.3459 9.6057 29.6541C9.6057 29.7256 9.612 29.7977 9.6228 29.8685C9.7616 30.7735 10.5004 31.3983 11.4305 31.3983C14.0963 31.3983 16.7622 31.3983 19.4281 31.398C19.5011 31.398 19.5742 31.3946 19.6469 31.3893C20.5983 31.3211 21.3167 30.5605 21.3167 29.621C21.3167 28.3282 21.3167 27.0357 21.3167 25.7429V25.6276H9.6049ZM11.4705 23.6036C11.4906 23.6357 11.5024 23.6568 11.5162 23.6763C11.8161 24.1019 12.1171 24.5267 12.4147 24.9539C12.4495 25.0038 12.4836 25.0237 12.5453 25.0232C12.9044 25.0203 13.2635 25.0218 13.6225 25.0215C13.6496 25.0215 13.6768 25.0177 13.7073 25.0153C13.7006 24.998 13.6991 24.9882 13.6939 24.9809C13.3824 24.5369 13.0714 24.0923 12.7566 23.6504C12.7379 23.6241 12.6894 23.6062 12.6543 23.6053C12.4605 23.601 12.2666 23.6032 12.0728 23.6032C11.877 23.6032 11.6811 23.6036 11.4705 23.6036ZM16.6032 25.0218C16.5813 24.9858 16.5696 24.9638 16.5555 24.9437C16.2552 24.5175 15.9536 24.0923 15.6552 23.6648C15.6218 23.6171 15.5873 23.6021 15.5308 23.6023C15.1681 23.6046 14.8053 23.6034 14.4426 23.6036C14.419 23.6036 14.3953 23.6059 14.3602 23.6077C14.3772 23.634 14.3865 23.6494 14.3966 23.6639C14.6725 24.0572 14.9565 24.4452 15.2204 24.8462C15.3149 24.9897 15.4181 25.032 15.5838 25.0256C15.9169 25.0126 16.251 25.0218 16.6032 25.0218ZM17.2443 23.6036C17.2651 23.6367 17.2767 23.6575 17.2903 23.6771C17.5906 24.103 17.8922 24.5281 18.19 24.9555C18.2253 25.0064 18.2614 25.0235 18.3217 25.023C18.6779 25.0205 19.0341 25.0218 19.3903 25.0215C19.418 25.0215 19.4455 25.0181 19.4814 25.0158C19.4709 24.9946 19.4659 24.9803 19.4577 24.9685C19.1494 24.529 18.8415 24.0893 18.5302 23.6519C18.5114 23.6256 18.4641 23.6062 18.4297 23.6055C18.2232 23.6012 18.0163 23.6034 17.8095 23.6034C17.6263 23.6034 17.443 23.6036 17.2443 23.6036ZM19.0964 20.5442C19.0757 20.5228 19.0679 20.513 19.0586 20.505C18.6476 20.1524 18.2369 19.7993 17.824 19.4488C17.8032 19.4312 17.7605 19.4237 17.7328 19.4304C17.3634 19.52 16.9948 19.6132 16.6259 19.7056C16.6124 19.709 16.6 19.7159 16.5652 19.7298C16.5948 19.749 16.612 19.7576 16.6261 19.7696C16.9782 20.07 17.3372 20.3632 17.6782 20.6753C17.82 20.8051 17.9441 20.8502 18.1352 20.7906C18.4456 20.6937 18.7659 20.6272 19.0964 20.5442ZM13.4986 21.9453C13.4836 21.9258 13.4778 21.9147 13.4691 21.907C13.0647 21.562 12.6591 21.2185 12.2572 20.8708C12.2072 20.8276 12.1683 20.8209 12.1064 20.837C11.8061 20.9153 11.5043 20.9878 11.2033 21.0628C11.1338 21.0801 11.0649 21.099 10.9773 21.1221C11.0761 21.2072 11.1613 21.2803 11.2462 21.3533C11.5732 21.6341 11.8995 21.9157 12.2286 22.194C12.2572 22.2183 12.309 22.2395 12.3424 22.2316C12.7242 22.1407 13.1046 22.044 13.4986 21.9453ZM13.7861 20.4169C13.7966 20.4366 13.7982 20.4435 13.8026 20.4471C14.2155 20.8019 14.6278 21.1573 15.0436 21.5089C15.0703 21.5314 15.1268 21.5365 15.164 21.5276C15.5122 21.4442 15.8591 21.3562 16.2063 21.269C16.235 21.2619 16.2627 21.2517 16.3029 21.2393C15.8919 20.8874 15.4905 20.5485 15.0961 20.2022C15.013 20.1293 14.9401 20.1147 14.841 20.1511C14.7733 20.1761 14.7002 20.187 14.6295 20.2048C14.3508 20.2749 14.0721 20.3447 13.7861 20.4169ZM9.6095 25.0162H10.815C10.8142 25.0048 10.8159 24.9974 10.8131 24.9933C10.4962 24.5418 10.1793 24.0903 9.8607 23.6397C9.8485 23.6224 9.8223 23.6068 9.8015 23.6053C9.7393 23.6008 9.6765 23.6036 9.6097 23.6036L9.6095 25.0162ZM9.5232 22.9402C9.9203 22.8407 10.308 22.7436 10.7209 22.6401C10.6854 22.6142 10.6667 22.6025 10.6501 22.5883C10.2694 22.2639 9.8889 21.9393 9.5087 21.6146C9.3817 21.5062 9.3361 21.5015 9.1727 21.5868C9.2888 22.0348 9.405 22.4838 9.5232 22.9402ZM20.1289 23.607C20.4405 24.0493 20.7465 24.4745 21.0405 24.9076C21.1138 25.0156 21.1924 25.0427 21.3106 25.011V23.6068L20.1289 23.607ZM20.5126 18.7325C20.1303 18.8287 19.7588 18.922 19.3871 19.0154L19.3783 19.042C19.3947 19.052 19.4127 19.0601 19.427 19.0723C19.8052 19.3944 20.1868 19.7125 20.5581 20.042C20.6562 20.1289 20.74 20.1609 20.8633 20.0891C20.7474 19.6408 20.6308 19.1893 20.5126 18.7325Z" fill="white"/>
<path d="M14.3951 26.7748C14.4152 26.7842 14.444 26.7953 14.4707 26.8103C15.2734 27.2656 16.076 27.7212 16.8785 28.1767C17.0242 28.2593 17.1698 28.3421 17.3153 28.4252C17.4252 28.4881 17.4256 28.572 17.3143 28.6353C16.4984 29.0994 15.6821 29.5628 14.8661 30.0263C14.7341 30.1013 14.6026 30.1768 14.4699 30.2506C14.3562 30.3139 14.2827 30.2744 14.2827 30.148C14.2821 29.0681 14.2827 27.9881 14.2819 26.9081C14.2819 26.8371 14.3027 26.7859 14.3951 26.7748Z" fill="white"/>
<path d="M67.63 27.88C67.73 28.48 67.76 29.27 67.72 30.25C67.7 30.49 67.57 30.61 67.33 30.61H58.18C58.14 30.61 58.1 30.63 58.06 30.67C58.02 30.69 58.01 30.72 58.03 30.76C58.07 30.98 58.17 31.27 58.33 31.63C58.57 32.05 58.93 32.39 59.41 32.65C59.89 32.91 60.48 33.04 61.18 33.04C62.44 33.04 63.43 32.63 64.15 31.81C64.23 31.71 64.32 31.66 64.42 31.66C64.52 31.66 64.6 31.7 64.66 31.78L66.97 34.42C67.05 34.48 67.09 34.56 67.09 34.66C67.09 34.74 67.05 34.82 66.97 34.9C66.27 35.66 65.4 36.24 64.36 36.64C63.34 37.04 62.22 37.24 61 37.24C59.18 37.24 57.63 36.85 56.35 36.07C55.09 35.27 54.18 34.16 53.62 32.74C53.2 31.74 52.99 30.49 52.99 28.99C52.99 27.95 53.15 26.95 53.47 25.99C53.99 24.51 54.84 23.35 56.02 22.51C57.22 21.65 58.64 21.22 60.28 21.22C61.6 21.22 62.78 21.51 63.82 22.09C64.86 22.65 65.7 23.44 66.34 24.46C67 25.46 67.43 26.6 67.63 27.88ZM60.28 25.51C59.24 25.51 58.55 26 58.21 26.98C58.13 27.2 58.08 27.41 58.06 27.61C58.02 27.71 58.06 27.76 58.18 27.76H62.44C62.52 27.76 62.56 27.72 62.56 27.64C62.56 27.48 62.52 27.28 62.44 27.04C62.3 26.54 62.04 26.16 61.66 25.9C61.3 25.64 60.84 25.51 60.28 25.51ZM80.4433 25.12C80.4433 25.22 80.4033 25.31 80.3233 25.39C80.2633 25.45 80.1833 25.48 80.0833 25.48H77.3533C77.2533 25.48 77.2033 25.53 77.2033 25.63V31.09C77.2033 32.23 77.6633 32.8 78.5833 32.8H79.6933C79.7933 32.8 79.8733 32.84 79.9333 32.92C80.0133 32.98 80.0533 33.06 80.0533 33.16V36.64C80.0533 36.86 79.9333 36.99 79.6933 37.03C78.7333 37.07 78.0333 37.09 77.5933 37.09C75.8533 37.09 74.5633 36.82 73.7233 36.28C72.8833 35.72 72.4533 34.67 72.4333 33.13V25.63C72.4333 25.53 72.3833 25.48 72.2833 25.48H70.5733C70.4733 25.48 70.3833 25.45 70.3033 25.39C70.2433 25.31 70.2133 25.22 70.2133 25.12V21.85C70.2133 21.75 70.2433 21.67 70.3033 21.61C70.3833 21.53 70.4733 21.49 70.5733 21.49H72.2833C72.3833 21.49 72.4333 21.44 72.4333 21.34V17.71C72.4333 17.61 72.4633 17.53 72.5233 17.47C72.6033 17.39 72.6933 17.35 72.7933 17.35H76.8433C76.9433 17.35 77.0233 17.39 77.0833 17.47C77.1633 17.53 77.2033 17.61 77.2033 17.71V21.34C77.2033 21.44 77.2533 21.49 77.3533 21.49H80.0833C80.1833 21.49 80.2633 21.53 80.3233 21.61C80.4033 21.67 80.4433 21.75 80.4433 21.85V25.12ZM93.5155 21.46C93.6155 21.46 93.6955 21.5 93.7555 21.58C93.8355 21.64 93.8755 21.72 93.8755 21.82V25.18C93.8755 25.28 93.8355 25.37 93.7555 25.45C93.6955 25.51 93.6155 25.54 93.5155 25.54H90.6955C90.5955 25.54 90.5455 25.59 90.5455 25.69V36.64C90.5455 36.74 90.5055 36.83 90.4255 36.91C90.3655 36.97 90.2855 37 90.1855 37H85.9255C85.8255 37 85.7355 36.97 85.6555 36.91C85.5955 36.83 85.5655 36.74 85.5655 36.64V25.69C85.5655 25.59 85.5155 25.54 85.4155 25.54H83.7355C83.6355 25.54 83.5455 25.51 83.4655 25.45C83.4055 25.37 83.3755 25.28 83.3755 25.18V21.82C83.3755 21.72 83.4055 21.64 83.4655 21.58C83.5455 21.5 83.6355 21.46 83.7355 21.46H85.4155C85.5155 21.46 85.5655 21.41 85.5655 21.31V20.5C85.5655 19.32 85.7755 18.4 86.1955 17.74C86.6155 17.06 87.2855 16.59 88.2055 16.33C89.1255 16.05 90.3755 15.94 91.9555 16H93.1855C93.2855 16 93.3655 16.04 93.4255 16.12C93.5055 16.18 93.5455 16.26 93.5455 16.36V19.09C93.5455 19.19 93.5055 19.28 93.4255 19.36C93.3655 19.42 93.2855 19.45 93.1855 19.45H92.0155C91.4755 19.49 91.0955 19.62 90.8755 19.84C90.6555 20.06 90.5455 20.43 90.5455 20.95V21.31C90.5455 21.41 90.5955 21.46 90.6955 21.46H93.5155ZM96.2155 37C96.1155 37 96.0255 36.97 95.9455 36.91C95.8855 36.83 95.8555 36.74 95.8555 36.64V16.36C95.8555 16.26 95.8855 16.18 95.9455 16.12C96.0255 16.04 96.1155 16 96.2155 16H100.476C100.576 16 100.656 16.04 100.716 16.12C100.796 16.18 100.836 16.26 100.836 16.36V36.64C100.836 36.74 100.796 36.83 100.716 36.91C100.656 36.97 100.576 37 100.476 37H96.2155ZM107.449 20.11C106.689 20.11 106.059 19.87 105.559 19.39C105.079 18.89 104.839 18.26 104.839 17.5C104.839 16.72 105.079 16.09 105.559 15.61C106.059 15.13 106.689 14.89 107.449 14.89C108.209 14.89 108.829 15.13 109.309 15.61C109.809 16.09 110.059 16.72 110.059 17.5C110.059 18.24 109.809 18.86 109.309 19.36C108.829 19.86 108.209 20.11 107.449 20.11ZM105.289 37C105.189 37 105.099 36.97 105.019 36.91C104.959 36.83 104.929 36.74 104.929 36.64V21.85C104.929 21.75 104.959 21.67 105.019 21.61C105.099 21.53 105.189 21.49 105.289 21.49H109.549C109.649 21.49 109.729 21.53 109.789 21.61C109.869 21.67 109.909 21.75 109.909 21.85V36.64C109.909 36.74 109.869 36.83 109.789 36.91C109.729 36.97 109.649 37 109.549 37H105.289ZM113.567 37C113.427 37 113.337 36.96 113.297 36.88C113.257 36.78 113.277 36.67 113.357 36.55L118.157 29.32C118.197 29.26 118.197 29.2 118.157 29.14L113.357 21.94C113.317 21.88 113.297 21.81 113.297 21.73C113.297 21.57 113.387 21.49 113.567 21.49H118.157C118.337 21.49 118.477 21.57 118.577 21.73L120.857 25.3C120.897 25.36 120.937 25.39 120.977 25.39C121.017 25.39 121.047 25.36 121.067 25.3L123.347 21.73C123.447 21.57 123.587 21.49 123.767 21.49H128.657C128.797 21.49 128.887 21.54 128.927 21.64C128.967 21.72 128.947 21.82 128.867 21.94L124.067 29.14C124.047 29.2 124.047 29.26 124.067 29.32L128.867 36.55C128.907 36.61 128.927 36.68 128.927 36.76C128.927 36.92 128.837 37 128.657 37H124.067C123.887 37 123.747 36.92 123.647 36.76L121.367 33.19C121.347 33.13 121.317 33.1 121.277 33.1C121.237 33.1 121.197 33.13 121.157 33.19L118.877 36.76C118.777 36.92 118.637 37 118.457 37H113.567Z" fill="url(#paint1_linear_1_2)"/>
<path d="M45.936 14.856C46.0213 14.6853 46.1707 14.6 46.384 14.6H50.896C51.0027 14.6 51.088 14.6427 51.152 14.728C51.2373 14.792 51.28 14.8773 51.28 14.984V36.616C51.28 36.7227 51.2373 36.8187 51.152 36.904C51.088 36.968 51.0027 37 50.896 37H46.352C46.2453 37 46.1493 36.968 46.064 36.904C46 36.8187 45.968 36.7227 45.968 36.616V23.752C45.968 23.6667 45.9467 23.624 45.904 23.624C45.8613 23.624 45.8187 23.656 45.776 23.72L43.024 28.136C42.9387 28.3067 42.7893 28.392 42.576 28.392H40.304C40.0907 28.392 39.9413 28.3067 39.856 28.136L37.072 23.688C37.0293 23.624 36.9867 23.592 36.944 23.592C36.9013 23.592 36.88 23.6347 36.88 23.72V36.616C36.88 36.7227 36.8373 36.8187 36.752 36.904C36.688 36.968 36.6027 37 36.496 37H31.952C31.8453 37 31.7493 36.968 31.664 36.904C31.6 36.8187 31.568 36.7227 31.568 36.616V14.984C31.568 14.8773 31.6 14.792 31.664 14.728C31.7493 14.6427 31.8453 14.6 31.952 14.6H36.464C36.656 14.6 36.8053 14.6853 36.912 14.856L41.36 21.832C41.424 21.96 41.488 21.96 41.552 21.832L45.936 14.856Z" fill="#F79A04"/>
</g>
<defs>
<linearGradient id="paint0_linear_1_2" x1="2.66832" y1="30.1098" x2="32.1078" y2="19.9886" gradientUnits="userSpaceOnUse">
<stop stop-color="#F89E00"/>
<stop offset="1" stop-color="#DA2F68"/>
</linearGradient>
<linearGradient id="paint1_linear_1_2" x1="49" y1="28.5" x2="111" y2="29.5" gradientUnits="userSpaceOnUse">
<stop stop-color="#F79A04"/>
<stop offset="0.857997" stop-color="#DC395E"/>
</linearGradient>
<clipPath id="clip0_1_2">
<rect width="131" height="40" fill="white"/>
</clipPath>
</defs>
</svg>
